<svg width="190" height="36" viewBox="0 0 190 36" fill="none" xmlns="http://www.w3.org/2000/svg">
<g clip-path="url(#clip0_1_4)">
<path d="M28.4926 8.52788H22.1133C21.8767 8.52788 21.6535 8.4334 21.4883 8.26695L14.1448 1.02402C13.0287 -0.100659 11.1225 0.695613 11.1225 2.28366V8.52338L3.52449 1.02402C2.40844 -0.100659 0.502235 0.695613 0.502235 2.28366V33.5002C0.502235 34.4855 1.29686 35.2862 2.27451 35.2862H9.3547C10.3324 35.2862 11.127 34.4855 11.127 33.5002V31.7143C11.127 30.729 11.9216 29.9283 12.8993 29.9283H25.2918C26.2695 29.9283 27.0641 30.729 27.0641 31.7143V33.5002C27.0641 34.4855 27.8587 35.2862 28.8364 35.2862H35.9166C36.8942 35.2862 37.6889 34.4855 37.6889 33.5002V17.7817C37.6889 16.9945 37.3764 16.2387 36.8228 15.6808L30.5863 9.39613C30.0328 8.83829 29.2828 8.52338 28.5016 8.52338L28.4926 8.52788ZM12.0109 24.5838H10.2386C9.26096 24.5838 8.46633 23.783 8.46633 22.7978V21.0118C8.46633 20.0266 9.26096 19.2258 10.2386 19.2258H12.0109C12.9885 19.2258 13.7832 20.0266 13.7832 21.0118V22.7978C13.7832 23.783 12.9885 24.5838 12.0109 24.5838ZM27.9436 24.5838H26.1713C25.1936 24.5838 24.399 23.783 24.399 22.7978V21.0118C24.399 20.0266 25.1936 19.2258 26.1713 19.2258H27.9436C28.9212 19.2258 29.7158 20.0266 29.7158 21.0118V22.7978C29.7158 23.783 28.9212 24.5838 27.9436 24.5838Z" fill="#984FB7"/>
<path d="M59.2285 28.1422C60.5722 27.5394 61.6124 26.6756 62.3401 25.542C63.0677 24.4083 63.4338 23.0587 63.4338 21.4886C63.4338 19.9186 63.0677 18.5645 62.3401 17.4218C61.6124 16.2791 60.5767 15.4019 59.2285 14.79C57.8803 14.1782 56.2688 13.8723 54.3894 13.8723H45.6485V35.2817H49.5948V29.042H54.3894C54.6706 29.042 54.9474 29.033 55.2197 29.0195L59.55 35.2817H63.7998L58.9205 28.2682C59.0232 28.2277 59.1303 28.1872 59.233 28.1422H59.2285ZM58.1348 18.3395C59.0143 19.0728 59.4562 20.1255 59.4562 21.4886C59.4562 22.8517 59.0143 23.8864 58.1348 24.6377C57.2554 25.3935 55.9429 25.7714 54.2063 25.7714H49.5948V17.2373H54.2063C55.9474 17.2373 57.2554 17.6062 58.1348 18.3395Z" fill="white"/>
<path d="M79.2281 19.8376C77.9245 19.1223 76.429 18.7669 74.7505 18.7669C73.072 18.7669 71.6122 19.1223 70.3176 19.8376C69.0229 20.5529 68.0006 21.5336 67.2507 22.7888C66.5007 24.0439 66.1257 25.4835 66.1257 27.1165C66.1257 28.7496 66.5007 30.1667 67.2507 31.4308C68.0006 32.6949 69.0229 33.6891 70.3176 34.4134C71.6122 35.1377 73.0898 35.4976 74.7505 35.4976C76.4112 35.4976 77.9201 35.1377 79.2281 34.4134C80.5316 33.6891 81.5539 32.6949 82.2949 31.4308C83.0315 30.1667 83.4021 28.7271 83.4021 27.1165C83.4021 25.506 83.0315 24.0169 82.2949 22.7753C81.5539 21.5336 80.5361 20.5529 79.2281 19.8376ZM78.9557 29.8382C78.5406 30.612 77.9692 31.2059 77.2415 31.6107C76.5138 32.0201 75.6835 32.2226 74.7549 32.2226C73.8264 32.2226 73.0318 32.0201 72.313 31.6107C71.5943 31.2014 71.0229 30.612 70.5988 29.8382C70.1747 29.0645 69.9604 28.1557 69.9604 27.1165C69.9604 26.0773 70.1747 25.1416 70.5988 24.3768C71.0229 23.612 71.5943 23.0272 72.313 22.6178C73.0318 22.2084 73.8576 22.006 74.7862 22.006C75.7147 22.006 76.5183 22.2084 77.246 22.6178C77.9736 23.0272 78.545 23.612 78.9602 24.3768C79.3754 25.1416 79.5807 26.0548 79.5807 27.1165C79.5807 28.1782 79.3709 29.0645 78.9602 29.8382H78.9557Z" fill="white"/>
<path d="M100.259 19.8106C99.0356 19.1178 97.6249 18.7714 96.0268 18.7714C94.7098 18.7714 93.5134 19.0728 92.4286 19.6756C91.826 20.0086 91.2992 20.4404 90.8349 20.9668V12.5947H87.0404V35.2907H90.6519V33.1268C91.134 33.7251 91.701 34.2155 92.3527 34.5844C93.4242 35.1962 94.6473 35.5021 96.0268 35.5021C97.6249 35.5021 99.0356 35.1512 100.259 34.4449C101.482 33.7431 102.455 32.7669 103.174 31.5253C103.893 30.2836 104.25 28.8125 104.25 27.121C104.25 25.4295 103.888 23.9584 103.174 22.7168C102.455 21.4751 101.486 20.5034 100.259 19.8106ZM99.7588 29.8427C99.3347 30.6165 98.7633 31.2104 98.0446 31.6152C97.3258 32.0246 96.5134 32.2271 95.6027 32.2271C94.692 32.2271 93.8706 32.0246 93.1429 31.6152C92.4152 31.2059 91.8394 30.6165 91.4108 29.8427C90.9867 29.069 90.7724 28.1602 90.7724 27.121C90.7724 26.0818 90.9867 25.1461 91.4108 24.3813C91.8349 23.6165 92.4108 23.0317 93.1429 22.6223C93.8706 22.2129 94.692 22.0105 95.6027 22.0105C96.5134 22.0105 97.3258 22.2129 98.0446 22.6223C98.7633 23.0317 99.3347 23.6165 99.7588 24.3813C100.183 25.1461 100.397 26.0593 100.397 27.121C100.397 28.1827 100.183 29.069 99.7588 29.8427Z" fill="white"/>
<path d="M119.624 19.8376C118.321 19.1223 116.825 18.7669 115.147 18.7669C113.468 18.7669 112.009 19.1223 110.714 19.8376C109.419 20.5529 108.397 21.5336 107.647 22.7888C106.897 24.0439 106.522 25.4835 106.522 27.1165C106.522 28.7496 106.897 30.1667 107.647 31.4308C108.397 32.6949 109.419 33.6891 110.714 34.4134C112.009 35.1377 113.486 35.4976 115.147 35.4976C116.808 35.4976 118.316 35.1377 119.624 34.4134C120.928 33.6891 121.95 32.6949 122.691 31.4308C123.428 30.1667 123.798 28.7271 123.798 27.1165C123.798 25.506 123.428 24.0169 122.691 22.7753C121.95 21.5336 120.932 20.5529 119.624 19.8376ZM119.352 29.8382C118.937 30.612 118.366 31.2059 117.638 31.6107C116.91 32.0201 116.08 32.2226 115.151 32.2226C114.223 32.2226 113.428 32.0201 112.709 31.6107C111.991 31.2014 111.419 30.612 110.995 29.8382C110.571 29.0645 110.357 28.1557 110.357 27.1165C110.357 26.0773 110.571 25.1416 110.995 24.3768C111.419 23.612 111.991 23.0272 112.709 22.6178C113.428 22.2084 114.254 22.006 115.183 22.006C116.111 22.006 116.915 22.2084 117.642 22.6178C118.37 23.0272 118.941 23.612 119.357 24.3768C119.772 25.1416 119.977 26.0548 119.977 27.1165C119.977 28.1782 119.767 29.0645 119.357 29.8382H119.352Z" fill="white"/>
<path d="M137.803 26.8871C137.204 26.5722 136.553 26.3203 135.843 26.1358C135.133 25.9514 134.423 25.8164 133.704 25.7219C132.986 25.6319 132.334 25.515 131.745 25.371C131.155 25.2271 130.682 25.0336 130.316 24.7907C129.95 24.5478 129.772 24.1789 129.772 23.6885C129.772 23.1577 130.048 22.7213 130.606 22.3749C131.164 22.0285 132.017 21.853 133.173 21.853C133.941 21.853 134.718 21.9385 135.495 22.114C136.271 22.2894 137.048 22.6088 137.816 23.0767L139.271 20.1705C138.544 19.7206 137.624 19.3742 136.508 19.1313C135.396 18.8884 134.294 18.7669 133.2 18.7669C131.745 18.7669 130.481 18.9738 129.423 19.3922C128.361 19.8106 127.535 20.3999 126.95 21.1647C126.365 21.9295 126.071 22.8337 126.071 23.8729C126.071 24.8132 126.254 25.5645 126.615 26.1358C126.981 26.7071 127.455 27.1615 128.044 27.4989C128.629 27.8363 129.285 28.0927 129.999 28.2637C130.718 28.4391 131.437 28.5741 132.155 28.6776C132.874 28.781 133.526 28.8935 134.115 29.015C134.7 29.1364 135.178 29.3164 135.544 29.5503C135.91 29.7843 136.088 30.1262 136.088 30.576C136.088 31.1249 135.82 31.5658 135.285 31.8897C134.749 32.2136 133.883 32.38 132.691 32.38C131.678 32.38 130.669 32.2271 129.655 31.9211C128.642 31.6152 127.772 31.2283 127.044 30.7605L125.589 33.6667C126.316 34.175 127.303 34.6114 128.548 34.9668C129.794 35.3222 131.093 35.5021 132.45 35.5021C133.968 35.5021 135.271 35.2907 136.365 34.8768C137.459 34.4584 138.303 33.8736 138.901 33.1178C139.499 32.362 139.798 31.4758 139.798 30.4591C139.798 29.5413 139.615 28.799 139.253 28.2277C138.887 27.6564 138.41 27.2155 137.811 26.8961L137.803 26.8871Z" fill="white"/>
<path d="M166.847 19.9456C165.905 19.4462 164.797 19.1943 163.525 19.1943C161.847 19.1943 160.418 19.6172 159.244 20.4629C158.289 21.1512 157.588 22.015 157.128 23.0497C156.771 21.925 156.168 21.0388 155.316 20.4044C154.231 19.5992 152.905 19.1943 151.325 19.1943C149.744 19.1943 148.472 19.5542 147.378 20.2785C146.436 20.9038 145.731 21.7226 145.253 22.7303V19.3158H143.798V35.2817H145.316V26.7791C145.316 25.4925 145.548 24.3948 146.012 23.4771C146.476 22.5593 147.146 21.844 148.017 21.3357C148.887 20.8273 149.918 20.5709 151.11 20.5709C152.668 20.5709 153.883 21.0388 154.753 21.979C155.624 22.9192 156.057 24.2823 156.057 26.0773V35.2817H157.574V26.7791C157.574 25.4925 157.807 24.3948 158.271 23.4771C158.735 22.5593 159.405 21.844 160.275 21.3357C161.146 20.8273 162.177 20.5709 163.369 20.5709C164.927 20.5709 166.141 21.0388 167.012 21.979C167.882 22.9192 168.315 24.2823 168.315 26.0773V35.2817H169.833V25.9514C169.833 24.4623 169.57 23.2116 169.043 22.2039C168.516 21.1962 167.784 20.4404 166.842 19.9411L166.847 19.9456Z" fill="white"/>
<path d="M188.516 23.0362C187.859 21.8215 186.958 20.8813 185.815 20.2065C184.672 19.5317 183.382 19.1988 181.944 19.1988C180.507 19.1988 179.212 19.5452 178.061 20.238C176.909 20.9308 176.003 21.8845 175.346 23.0992C174.69 24.3138 174.36 25.7129 174.36 27.3055C174.36 28.898 174.708 30.2701 175.409 31.4938C176.105 32.7174 177.069 33.6756 178.293 34.3685C179.516 35.0613 180.927 35.4077 182.525 35.4077C183.739 35.4077 184.868 35.1872 185.909 34.7508C186.949 34.3145 187.815 33.6667 188.502 32.8074L187.623 31.7997C187.016 32.5555 186.27 33.1133 185.391 33.4822C184.511 33.8511 183.565 34.031 182.551 34.031C181.257 34.031 180.105 33.7521 179.092 33.1898C178.078 32.6274 177.284 31.8447 176.708 30.837C176.177 29.9102 175.895 28.853 175.851 27.6699H189.471C189.471 27.5889 189.475 27.5124 189.484 27.4404C189.493 27.3685 189.498 27.301 189.498 27.2425C189.498 25.6499 189.167 24.2508 188.511 23.0362H188.516ZM176.632 23.711C177.159 22.7213 177.882 21.9475 178.802 21.3852C179.721 20.8228 180.77 20.5439 181.944 20.5439C183.118 20.5439 184.19 20.8228 185.101 21.3852C186.011 21.9475 186.734 22.7213 187.27 23.711C187.721 24.5433 187.962 25.47 188.02 26.4777H175.878C175.949 25.461 176.195 24.5343 176.632 23.711Z" fill="white"/>
</g>
<defs>
<clipPath id="clip0_1_4">
<rect width="190" height="36" fill="white"/>
</clipPath>
</defs>
</svg>
